<?xml version="1.0" standalone="no"?>
<!DOCTYPE svg PUBLIC "-//W3C//DTD SVG 20010904//EN"
 "http://www.w3.org/TR/2001/REC-SVG-20010904/DTD/svg10.dtd">
<svg version="1.0" xmlns="http://www.w3.org/2000/svg"
 width="700.000000pt" height="700.000000pt" viewBox="0 0 700.000000 700.000000"
 preserveAspectRatio="xMidYMid meet">
<metadata>
Created by potrace 1.11, written by Peter Selinger 2001-2013
</metadata>
<g transform="translate(0.000000,700.000000) scale(0.100000,-0.100000)"
fill="#000000" stroke="none">
<path d="M879 6560 c-1 -3 -2 -299 -3 -657 l-1 -653 217 0 218 0 0 -840 c0
-734 -2 -840 -15 -840 -22 0 -143 -57 -194 -93 -131 -90 -228 -215 -289 -372
-53 -136 -59 -320 -16 -475 14 -50 70 -177 84 -190 3 -3 17 -23 32 -45 87
-129 271 -254 427 -293 35 -8 42 -20 55 -92 8 -47 55 -197 85 -274 151 -378
399 -654 746 -829 148 -75 316 -135 467 -168 l57 -12 12 -51 c7 -28 15 -58 19
-66 4 -8 15 -33 25 -55 31 -74 105 -173 180 -243 87 -81 218 -152 335 -181
107 -27 298 -22 395 9 258 82 452 279 521 528 l16 58 87 22 c47 12 94 24 104
27 24 6 137 44 162 55 11 5 45 19 75 32 30 12 92 43 137 68 397 218 660 572
781 1050 l28 112 70 22 c581 186 727 933 257 1321 -38 31 -106 74 -153 96 -47
22 -91 43 -99 47 -12 7 -14 136 -13 817 0 446 1 820 1 832 1 23 1 23 218 25
l218 3 0 653 c0 573 -2 652 -15 653 -19 1 -1271 1 -1287 0 -9 -1 -12 -153 -12
-656 l0 -655 220 0 219 0 0 -835 c0 -787 -1 -836 -17 -841 -10 -4 -60 -26
-110 -51 -149 -72 -283 -210 -350 -361 -83 -186 -91 -386 -23 -578 63 -180
224 -358 388 -430 43 -18 44 -20 38 -57 -17 -102 -144 -399 -195 -454 -12 -12
-21 -25 -21 -28 0 -3 -15 -22 -32 -42 -167 -185 -313 -278 -574 -367 -134 -45
-141 -44 -180 29 -98 181 -255 310 -454 372 -123 38 -280 41 -407 8 -84 -21
-207 -76 -258 -115 -59 -45 -184 -183 -215 -238 -57 -102 -50 -97 -106 -83
-297 73 -575 255 -717 468 -85 127 -175 338 -193 451 -6 36 -4 38 34 55 136
60 269 186 345 327 226 420 21 934 -435 1093 -17 6 -18 55 -18 842 l0 835 219
0 219 0 0 655 c0 601 -1 655 -17 656 -75 4 -1291 3 -1292 -1z"/>
</g>
</svg>
