<svg xmlns="http://www.w3.org/2000/svg" width="16" height="16" viewBox="0 0 16 16">
  <g fill="none" fill-rule="evenodd" transform="translate(.99 .511)">
    <path stroke="#E60000" d="M11.509227,1.93152535 L11.509227,9.13599871 C11.509227,12.0889551 10.2412124,13.4890123 7.0089044,13.4890123 C3.77724167,13.4890123 2.50922705,12.0889551 2.50922705,9.13599871 L2.50922705,1.93152535"/>
    <polygon fill="#E60000" points="1.009 3.489 4.009 3.489 4.009 .489 1.009 .489"/>
    <polygon fill="#E60000" points="10.009 3.489 13.009 3.489 13.009 .489 10.009 .489"/>
    <path fill="#E60000" d="M7.00887315 11.7390123C7.97570834 11.7390123 8.75922705 12.522531 8.75922705 13.4893662 8.75922705 14.4554936 7.97570834 15.2390123 7.00887315 15.2390123 6.04274575 15.2390123 5.25922705 14.4554936 5.25922705 13.4893662 5.25922705 12.522531 6.04274575 11.7390123 7.00887315 11.7390123M2.50887315 7.23901232C3.47570834 7.23901232 4.25922705 8.02253103 4.25922705 8.98936622 4.25922705 9.95549362 3.47570834 10.7390123 2.50887315 10.7390123 1.54274575 10.7390123.759227045 9.95549362.759227045 8.98936622.759227045 8.02253103 1.54274575 7.23901232 2.50887315 7.23901232M11.5088732 7.23901232C12.4757083 7.23901232 13.259227 8.02253103 13.259227 8.98936622 13.259227 9.95549362 12.4757083 10.7390123 11.5088732 10.7390123 10.5427458 10.7390123 9.75922705 9.95549362 9.75922705 8.98936622 9.75922705 8.02253103 10.5427458 7.23901232 11.5088732 7.23901232"/>
  </g>
</svg>
