<?xml version="1.0" encoding="utf-8"?>
<!-- Generator: Adobe Illustrator 24.2.3, SVG Export Plug-In . SVG Version: 6.00 Build 0)  -->
<svg version="1.1" xmlns="http://www.w3.org/2000/svg" xmlns:xlink="http://www.w3.org/1999/xlink" x="0px" y="0px" width="190.5px"
	 height="190.5px" viewBox="0 0 190.5 190.5" enable-background="new 0 0 190.5 190.5" xml:space="preserve">
<g id="lines">
	<circle fill="none" stroke="#000000" vector-effect="non-scaling-stroke" stroke-width="0.75" stroke-miterlimit="10" cx="95.2" cy="95.2" r="93.4"/>
	<path fill="none" stroke="#E60000" vector-effect="non-scaling-stroke" stroke-width="0.75" stroke-miterlimit="10" d="M123.3,104.6V85.9c0-14,6.5-20.5,20.5-20.5
		s20.5,6.5,20.5,20.5v18.7c0,14-6.5,20.5-20.5,20.5S123.3,118.6,123.3,104.6z"/>
	<path fill="none" stroke="#E60000" vector-effect="non-scaling-stroke" stroke-width="0.75" stroke-miterlimit="10" d="M65.4,66.3v38.3c0,14-5.6,20.5-19.6,20.5
		s-19.6-6.5-19.6-20.5V66.3"/>
	<polyline fill="none" stroke="#E60000" vector-effect="non-scaling-stroke" stroke-width="0.75" stroke-miterlimit="10" points="77.5,124.2 77.5,66.3 111.1,66.3 	"/>
	<line fill="none" stroke="#E60000" vector-effect="non-scaling-stroke" stroke-width="0.75" stroke-miterlimit="10" x1="88.7" y1="98" x2="111.1" y2="98"/>
	<polyline fill="none" stroke="#E60000" vector-effect="non-scaling-stroke" stroke-width="0.75" stroke-miterlimit="10" points="83.1,124.2 83.1,71.9 111.1,71.9 	"/>
	<line fill="none" stroke="#E60000" vector-effect="non-scaling-stroke" stroke-width="0.75" stroke-miterlimit="10" x1="88.7" y1="92.4" x2="111.1" y2="92.4"/>
	<path fill="none" stroke="#E60000" vector-effect="non-scaling-stroke" stroke-width="0.75" stroke-miterlimit="10" d="M128.9,104.6c0,10.3,4.7,14.9,14.9,14.9
		c10.3,0,14.9-4.7,14.9-14.9V85.9c0-10.3-4.7-14.9-14.9-14.9c-10.3,0-14.9,4.7-14.9,14.9V104.6z"/>
	<path fill="none" stroke="#E60000" vector-effect="non-scaling-stroke" stroke-width="0.75" stroke-miterlimit="10" d="M31.8,66.3v38.3c0,10.1,3.7,14.9,14,14.9
		s14-4.9,14-14.9V66.3"/>
	<path fill="none" stroke="#E60000" vector-effect="non-scaling-stroke" stroke-width="0.75" stroke-miterlimit="10" d="M134.5,104.6c0,6.3,3,9.3,9.3,9.3s9.3-3,9.3-9.3
		V85.9c0-6.3-3-9.3-9.3-9.3s-9.3,3-9.3,9.3V104.6z"/>
	<path fill="none" stroke="#E60000" vector-effect="non-scaling-stroke" stroke-width="0.75" stroke-miterlimit="10" d="M37.4,66.3v38.3c0,6,2.1,9.3,8.4,9.3
		s8.4-3.4,8.4-9.3V66.3"/>
	<polyline fill="none" stroke="#E60000" vector-effect="non-scaling-stroke" stroke-width="0.75" stroke-miterlimit="10" points="88.7,124.2 88.7,77.5 111.1,77.5 	"/>
	<line fill="none" stroke="#E60000" vector-effect="non-scaling-stroke" stroke-width="0.75" stroke-miterlimit="10" x1="88.7" y1="103.6" x2="111.1" y2="103.6"/>
	<line fill="none" stroke="#D2D2D2" vector-effect="non-scaling-stroke" stroke-width="0.75" stroke-miterlimit="10" x1="152.6" y1="44.8" x2="112.4" y2="44.8"/>
	<line fill="none" stroke="#D2D2D2" vector-effect="non-scaling-stroke" stroke-width="0.75" stroke-miterlimit="10" x1="147.2" y1="39.2" x2="112.4" y2="39.2"/>
	<line fill="none" stroke="#D2D2D2" vector-effect="non-scaling-stroke" stroke-width="0.75" stroke-miterlimit="10" x1="140.4" y1="33.6" x2="112.4" y2="33.6"/>
	<line fill="none" stroke="#D2D2D2" vector-effect="non-scaling-stroke" stroke-width="0.75" stroke-miterlimit="10" x1="95.2" y1="50.4" x2="95.2" y2="28"/>
	<line fill="none" stroke="#D2D2D2" vector-effect="non-scaling-stroke" stroke-width="0.75" stroke-miterlimit="10" x1="85.5" y1="44.8" x2="105" y2="33.6"/>
	<line fill="none" stroke="#D2D2D2" vector-effect="non-scaling-stroke" stroke-width="0.75" stroke-miterlimit="10" x1="105" y1="44.8" x2="85.5" y2="33.6"/>
	<line fill="none" stroke="#D2D2D2" vector-effect="non-scaling-stroke" stroke-width="0.75" stroke-miterlimit="10" x1="78.1" y1="44.8" x2="37.9" y2="44.8"/>
	<line fill="none" stroke="#D2D2D2" vector-effect="non-scaling-stroke" stroke-width="0.75" stroke-miterlimit="10" x1="78.1" y1="39.2" x2="43.3" y2="39.2"/>
	<line fill="none" stroke="#D2D2D2" vector-effect="non-scaling-stroke" stroke-width="0.75" stroke-miterlimit="10" x1="78.1" y1="33.6" x2="50.1" y2="33.6"/>
	<line fill="none" stroke="#D2D2D2" vector-effect="non-scaling-stroke" stroke-width="0.75" stroke-miterlimit="10" x1="112.4" y1="145.7" x2="152.6" y2="145.7"/>
	<line fill="none" stroke="#D2D2D2" vector-effect="non-scaling-stroke" stroke-width="0.75" stroke-miterlimit="10" x1="112.4" y1="151.3" x2="147.2" y2="151.3"/>
	<line fill="none" stroke="#D2D2D2" vector-effect="non-scaling-stroke" stroke-width="0.75" stroke-miterlimit="10" x1="112.4" y1="156.9" x2="140.4" y2="156.9"/>
	<line fill="none" stroke="#D2D2D2" vector-effect="non-scaling-stroke" stroke-width="0.75" stroke-miterlimit="10" x1="95.2" y1="162.5" x2="95.2" y2="140.1"/>
	<line fill="none" stroke="#D2D2D2" vector-effect="non-scaling-stroke" stroke-width="0.75" stroke-miterlimit="10" x1="105" y1="156.9" x2="85.5" y2="145.7"/>
	<line fill="none" stroke="#D2D2D2" vector-effect="non-scaling-stroke" stroke-width="0.75" stroke-miterlimit="10" x1="85.5" y1="156.9" x2="105" y2="145.7"/>
	<circle fill="none" stroke="#000000" vector-effect="non-scaling-stroke" stroke-width="0.75" stroke-miterlimit="10" cx="95.2" cy="95.2" r="87.8"/>
	<line fill="none" stroke="#D2D2D2" vector-effect="non-scaling-stroke" stroke-width="0.75" stroke-miterlimit="10" x1="37.9" y1="145.7" x2="78.1" y2="145.7"/>
	<line fill="none" stroke="#D2D2D2" vector-effect="non-scaling-stroke" stroke-width="0.75" stroke-miterlimit="10" x1="43.3" y1="151.3" x2="78.1" y2="151.3"/>
	<line fill="none" stroke="#D2D2D2" vector-effect="non-scaling-stroke" stroke-width="0.75" stroke-miterlimit="10" x1="50.1" y1="156.9" x2="78.1" y2="156.9"/>
</g>
<g id="points">
	<rect x="93.9" y="26.7" fill="#D2D2D2" width="2.7" height="2.7"/>
	<rect x="24.8" y="64.9" fill="#E60000" width="2.7" height="2.7"/>
	<rect x="30.4" y="64.9" fill="#E60000" width="2.7" height="2.7"/>
	<rect x="36" y="64.9" fill="#E60000" width="2.7" height="2.7"/>
	<rect x="52.8" y="64.9" fill="#E60000" width="2.7" height="2.7"/>
	<rect x="58.4" y="64.9" fill="#E60000" width="2.7" height="2.7"/>
	<rect x="64" y="64.9" fill="#E60000" width="2.7" height="2.7"/>
	<rect x="93.9" y="49.1" fill="#D2D2D2" width="2.7" height="2.7"/>
	<rect x="103.6" y="43.5" fill="#D2D2D2" width="2.7" height="2.7"/>
	<rect x="103.6" y="32.3" fill="#D2D2D2" width="2.7" height="2.7"/>
	<rect x="111.1" y="43.5" fill="#D2D2D2" width="2.7" height="2.7"/>
	<rect x="111.1" y="32.3" fill="#D2D2D2" width="2.7" height="2.7"/>
	<rect x="111.1" y="37.9" fill="#D2D2D2" width="2.7" height="2.7"/>
	<rect x="151.2" y="43.5" fill="#D2D2D2" width="2.7" height="2.7"/>
	<rect x="139.1" y="32.3" fill="#D2D2D2" width="2.7" height="2.7"/>
	<rect x="145.8" y="37.9" fill="#D2D2D2" width="2.7" height="2.7"/>
	<rect x="84.2" y="43.5" fill="#D2D2D2" width="2.7" height="2.7"/>
	<rect x="84.2" y="32.3" fill="#D2D2D2" width="2.7" height="2.7"/>
	<circle cx="95.2" cy="7.5" r="1.6"/>
	<circle cx="95.2" cy="1.9" r="1.6"/>
	<circle cx="95.2" cy="188.6" r="1.6"/>
	<circle cx="95.2" cy="183" r="1.6"/>
	<circle cx="183" cy="95.2" r="1.6"/>
	<circle cx="188.6" cy="95.2" r="1.6"/>
	<circle cx="1.9" cy="95.2" r="1.6"/>
	<circle fill="#E60000" cx="26.2" cy="104.6" r="1.6"/>
	<circle fill="#E60000" cx="31.8" cy="104.6" r="1.6"/>
	<circle fill="#E60000" cx="37.4" cy="104.6" r="1.6"/>
	<circle fill="#E60000" cx="54.2" cy="104.6" r="1.6"/>
	<circle fill="#E60000" cx="59.8" cy="104.6" r="1.6"/>
	<circle fill="#E60000" cx="65.4" cy="104.6" r="1.6"/>
	<circle fill="#E60000" cx="123.3" cy="104.6" r="1.6"/>
	<circle fill="#E60000" cx="128.9" cy="104.6" r="1.6"/>
	<circle fill="#E60000" cx="134.5" cy="104.6" r="1.6"/>
	<circle fill="#E60000" cx="153.1" cy="104.6" r="1.6"/>
	<circle fill="#E60000" cx="158.7" cy="104.6" r="1.6"/>
	<circle fill="#E60000" cx="164.3" cy="104.6" r="1.6"/>
	<circle fill="#E60000" cx="123.3" cy="85.9" r="1.6"/>
	<circle fill="#E60000" cx="128.9" cy="85.9" r="1.6"/>
	<circle fill="#E60000" cx="134.5" cy="85.9" r="1.6"/>
	<circle fill="#E60000" cx="153.1" cy="85.9" r="1.6"/>
	<circle fill="#E60000" cx="158.7" cy="85.9" r="1.6"/>
	<circle fill="#E60000" cx="164.3" cy="85.9" r="1.6"/>
	<circle fill="#E60000" cx="45.8" cy="125.1" r="1.6"/>
	<circle fill="#E60000" cx="45.8" cy="119.5" r="1.6"/>
	<circle fill="#E60000" cx="45.8" cy="113.9" r="1.6"/>
	<circle fill="#E60000" cx="143.8" cy="125.1" r="1.6"/>
	<circle fill="#E60000" cx="143.8" cy="119.5" r="1.6"/>
	<circle fill="#E60000" cx="143.8" cy="113.9" r="1.6"/>
	<circle cx="7.5" cy="95.2" r="1.6"/>
	<rect x="76.1" y="122.8" fill="#E60000" width="2.7" height="2.7"/>
	<rect x="81.7" y="122.8" fill="#E60000" width="2.7" height="2.7"/>
	<rect x="87.3" y="122.8" fill="#E60000" width="2.7" height="2.7"/>
	<rect x="109.7" y="102.3" fill="#E60000" width="2.7" height="2.7"/>
	<rect x="109.7" y="96.7" fill="#E60000" width="2.7" height="2.7"/>
	<rect x="109.7" y="91.1" fill="#E60000" width="2.7" height="2.7"/>
	<rect x="87.3" y="102.3" fill="#E60000" width="2.7" height="2.7"/>
	<rect x="87.3" y="96.7" fill="#E60000" width="2.7" height="2.7"/>
	<rect x="87.3" y="91.1" fill="#E60000" width="2.7" height="2.7"/>
	<rect x="109.7" y="76.1" fill="#E60000" width="2.7" height="2.7"/>
	<rect x="109.7" y="70.5" fill="#E60000" width="2.7" height="2.7"/>
	<rect x="109.7" y="64.9" fill="#E60000" width="2.7" height="2.7"/>
	<rect x="87.3" y="76.1" fill="#E60000" width="2.7" height="2.7"/>
	<rect x="81.7" y="70.5" fill="#E60000" width="2.7" height="2.7"/>
	<rect x="76.1" y="64.9" fill="#E60000" width="2.7" height="2.7"/>
	<circle fill="#E60000" cx="143.8" cy="65.4" r="1.6"/>
	<circle fill="#E60000" cx="143.8" cy="71" r="1.6"/>
	<circle fill="#E60000" cx="143.8" cy="76.6" r="1.6"/>
	<rect x="76.7" y="43.5" fill="#D2D2D2" width="2.7" height="2.7"/>
	<rect x="76.7" y="32.3" fill="#D2D2D2" width="2.7" height="2.7"/>
	<rect x="76.7" y="37.9" fill="#D2D2D2" width="2.7" height="2.7"/>
	<rect x="36.5" y="43.5" fill="#D2D2D2" width="2.7" height="2.7"/>
	<rect x="48.7" y="32.3" fill="#D2D2D2" width="2.7" height="2.7"/>
	<rect x="42" y="37.9" fill="#D2D2D2" width="2.7" height="2.7"/>
	<rect x="93.9" y="161.1" fill="#D2D2D2" width="2.7" height="2.7"/>
	<rect x="93.9" y="138.7" fill="#D2D2D2" width="2.7" height="2.7"/>
	<rect x="103.6" y="144.3" fill="#D2D2D2" width="2.7" height="2.7"/>
	<rect x="103.6" y="155.5" fill="#D2D2D2" width="2.7" height="2.7"/>
	<rect x="111.1" y="144.3" fill="#D2D2D2" width="2.7" height="2.7"/>
	<rect x="111.1" y="155.5" fill="#D2D2D2" width="2.7" height="2.7"/>
	<rect x="111.1" y="149.9" fill="#D2D2D2" width="2.7" height="2.7"/>
	<rect x="151.2" y="144.3" fill="#D2D2D2" width="2.7" height="2.7"/>
	<rect x="139.1" y="155.5" fill="#D2D2D2" width="2.7" height="2.7"/>
	<rect x="145.8" y="149.9" fill="#D2D2D2" width="2.7" height="2.7"/>
	<rect x="84.2" y="144.3" fill="#D2D2D2" width="2.7" height="2.7"/>
	<rect x="84.2" y="155.5" fill="#D2D2D2" width="2.7" height="2.7"/>
	<rect x="76.7" y="144.3" fill="#D2D2D2" width="2.7" height="2.7"/>
	<rect x="76.7" y="155.5" fill="#D2D2D2" width="2.7" height="2.7"/>
	<rect x="76.7" y="149.9" fill="#D2D2D2" width="2.7" height="2.7"/>
	<rect x="36.5" y="144.3" fill="#D2D2D2" width="2.7" height="2.7"/>
	<rect x="48.7" y="155.5" fill="#D2D2D2" width="2.7" height="2.7"/>
	<rect x="42" y="149.9" fill="#D2D2D2" width="2.7" height="2.7"/>
	<g>
	</g>
	<g>
	</g>
	<g>
	</g>
	<g>
	</g>
	<g>
	</g>
	<g>
	</g>
</g>
</svg>
