<?xml version="1.0" encoding="utf-8"?>
<!-- Generator: Adobe Illustrator 24.2.3, SVG Export Plug-In . SVG Version: 6.00 Build 0)  -->
<svg version="1.1" xmlns="http://www.w3.org/2000/svg" xmlns:xlink="http://www.w3.org/1999/xlink" x="0px" y="0px" width="1000px"
	 height="36.1px" viewBox="0 0 1000 36.1" enable-background="new 0 0 1000 36.1" xml:space="preserve">
<g id="lines">
	<line fill="none" stroke="#D2D2D2" vector-effect="non-scaling-stroke" stroke-width="0.75"  stroke-miterlimit="10" x1="1000" y1="22.3" x2="107.6" y2="22.3"/>
	<line fill="none" stroke="#D2D2D2" vector-effect="non-scaling-stroke" stroke-width="0.75"  stroke-miterlimit="10" x1="1000" y1="16" x2="107.6" y2="16"/>
	<path fill="none" stroke="#E60000" vector-effect="non-scaling-stroke" stroke-width="0.75"  stroke-miterlimit="10" d="M23.3,1.9v21.4c0,7.8-3.1,11.5-11,11.5
		s-11-3.7-11-11.5V1.9h6.3v21.4c0,3.3,1.2,5.2,4.7,5.2s4.7-1.9,4.7-5.2V1.9H23.3z"/>
	<line fill="none" stroke="#D2D2D2" vector-effect="non-scaling-stroke" stroke-width="0.75"  stroke-miterlimit="10" x1="94.2" y1="25.4" x2="94.2" y2="12.8"/>
	<line fill="none" stroke="#D2D2D2" vector-effect="non-scaling-stroke" stroke-width="0.75"  stroke-miterlimit="10" x1="88.7" y1="22.3" x2="99.6" y2="16"/>
	<line fill="none" stroke="#D2D2D2" vector-effect="non-scaling-stroke" stroke-width="0.75"  stroke-miterlimit="10" x1="99.6" y1="22.3" x2="88.7" y2="16"/>
	<path fill="none" stroke="#E60000" vector-effect="non-scaling-stroke" stroke-width="0.75"  stroke-miterlimit="10" d="M55.7,23.3V12.8c0-7.8,3.7-11.5,11.5-11.5
		S78.7,5,78.7,12.8v10.5c0,7.8-3.7,11.5-11.5,11.5S55.7,31.1,55.7,23.3z"/>
	<polygon fill="none" stroke="#E60000" vector-effect="non-scaling-stroke" stroke-width="0.75"  stroke-miterlimit="10" points="48.9,8.1 48.9,1.9 30.1,1.9 30.1,34.3 
		36.4,34.3 36.4,22.8 48.9,22.8 48.9,16.5 36.4,16.5 36.4,8.1 	"/>
	<path fill="none" stroke="#E60000" vector-effect="non-scaling-stroke" stroke-width="0.75"  stroke-miterlimit="10" d="M62,23.3c0,3.6,1.7,5.2,5.2,5.2
		c3.6,0,5.2-1.7,5.2-5.2V12.8c0-3.6-1.7-5.2-5.2-5.2c-3.6,0-5.2,1.7-5.2,5.2V23.3z"/>
</g>
<g id="points">
	<rect x="106.4" y="21.1" fill="#D2D2D2" width="2.3" height="2.3"/>
	<rect x="106.4" y="14.8" fill="#D2D2D2" width="2.3" height="2.3"/>
	<rect x="93" y="11.7" fill="#D2D2D2" width="2.3" height="2.3"/>
	<rect x="93" y="24.2" fill="#D2D2D2" width="2.3" height="2.3"/>
	<rect x="98.4" y="21.1" fill="#D2D2D2" width="2.3" height="2.3"/>
	<rect x="98.4" y="14.8" fill="#D2D2D2" width="2.3" height="2.3"/>
	<rect x="87.6" y="21.1" fill="#D2D2D2" width="2.3" height="2.3"/>
	<rect x="87.6" y="14.8" fill="#D2D2D2" width="2.3" height="2.3"/>
	<rect x="0.2" y="0.7" fill="#E60000" width="2.3" height="2.3"/>
	<rect x="6.5" y="0.7" fill="#E60000" width="2.3" height="2.3"/>
	<rect x="15.9" y="0.7" fill="#E60000" width="2.3" height="2.3"/>
	<rect x="22.2" y="0.7" fill="#E60000" width="2.3" height="2.3"/>
	<circle fill="#E60000" cx="1.3" cy="23.3" r="1.3"/>
	<circle fill="#E60000" cx="7.6" cy="23.3" r="1.3"/>
	<circle fill="#E60000" cx="17" cy="23.3" r="1.3"/>
	<circle fill="#E60000" cx="23.3" cy="23.3" r="1.3"/>
	<circle fill="#E60000" cx="55.7" cy="23.3" r="1.3"/>
	<circle fill="#E60000" cx="62" cy="23.3" r="1.3"/>
	<circle fill="#E60000" cx="72.4" cy="23.3" r="1.3"/>
	<circle fill="#E60000" cx="78.7" cy="23.3" r="1.3"/>
	<circle fill="#E60000" cx="55.7" cy="12.8" r="1.3"/>
	<circle fill="#E60000" cx="62" cy="12.8" r="1.3"/>
	<circle fill="#E60000" cx="72.4" cy="12.8" r="1.3"/>
	<circle fill="#E60000" cx="78.7" cy="12.8" r="1.3"/>
	<circle fill="#E60000" cx="12.3" cy="34.8" r="1.3"/>
	<circle fill="#E60000" cx="12.3" cy="28.5" r="1.3"/>
	<circle fill="#E60000" cx="67.2" cy="34.8" r="1.3"/>
	<circle fill="#E60000" cx="67.2" cy="28.5" r="1.3"/>
	<rect x="28.9" y="33.1" fill="#E60000" width="2.3" height="2.3"/>
	<rect x="35.2" y="33.1" fill="#E60000" width="2.3" height="2.3"/>
	<rect x="47.8" y="21.6" fill="#E60000" width="2.3" height="2.3"/>
	<rect x="47.8" y="15.4" fill="#E60000" width="2.3" height="2.3"/>
	<rect x="35.2" y="21.6" fill="#E60000" width="2.3" height="2.3"/>
	<rect x="35.2" y="15.4" fill="#E60000" width="2.3" height="2.3"/>
	<rect x="47.8" y="7" fill="#E60000" width="2.3" height="2.3"/>
	<rect x="47.8" y="0.7" fill="#E60000" width="2.3" height="2.3"/>
	<rect x="35.2" y="7" fill="#E60000" width="2.3" height="2.3"/>
	<rect x="28.9" y="0.7" fill="#E60000" width="2.3" height="2.3"/>
	<circle fill="#E60000" cx="67.2" cy="1.3" r="1.3"/>
	<circle fill="#E60000" cx="67.2" cy="7.6" r="1.3"/>
</g>
</svg>
